<?xml version="1.0" encoding="utf-8"?>
<!-- Generator: Adobe Illustrator 17.1.0, SVG Export Plug-In . SVG Version: 6.00 Build 0)  -->
<!DOCTYPE svg PUBLIC "-//W3C//DTD SVG 1.1//EN" "http://www.w3.org/Graphics/SVG/1.1/DTD/svg11.dtd">
<svg version="1.1" id="Layer_1" xmlns="http://www.w3.org/2000/svg" xmlns:xlink="http://www.w3.org/1999/xlink" x="0px" y="0px"
	 viewBox="0 0 48 48" enable-background="new 0 0 48 48" xml:space="preserve">
<g>
	<g>
		<path fill="#A02F5D" d="M35.5,8.011c-2.481,0-4.5,2.019-4.5,4.5L31.003,34c0,0.374,0.105,0.741,0.304,1.059l2.497,4
			C34.169,39.644,34.81,40,35.5,40h0c0.69,0,1.331-0.355,1.696-0.94l2.5-4C39.895,34.742,40,34.375,40,34V12.511
			C40,10.03,37.981,8.011,35.5,8.011z M38,34l-2.5,4L33,34V18h5V34z M38,17h-5l0-2h5V17z M38,14h-5l0-1.489
			c0-1.381,1.121-2.5,2.5-2.5c1.382,0,2.5,1.119,2.5,2.5V14z"/>
	</g>
	<g>
		<path fill="#A02F5D" d="M27,8H11c-1.65,0-3,1.35-3,3v26c0,1.65,1.35,3,3,3h16c1.65,0,3-1.35,3-3V11C30,9.35,28.65,8,27,8z M14,38
			h-3c-0.542,0-1-0.458-1-1V11c0-0.542,0.458-1,1-1h3V38z M28,37c0,0.542-0.458,1-1,1H15V10h12c0.542,0,1,0.458,1,1V37z"/>
	</g>
</g>
</svg>
