<?xml version="1.0" encoding="utf-8"?>
<!-- Generator: Adobe Illustrator 17.1.0, SVG Export Plug-In . SVG Version: 6.00 Build 0)  -->
<!DOCTYPE svg PUBLIC "-//W3C//DTD SVG 1.1//EN" "http://www.w3.org/Graphics/SVG/1.1/DTD/svg11.dtd">
<svg version="1.1" id="Layer_1" xmlns="http://www.w3.org/2000/svg" xmlns:xlink="http://www.w3.org/1999/xlink" x="0px" y="0px"
	 viewBox="0 -39.5 115 115" enable-background="new 0 -39.5 115 115" xml:space="preserve">
<g>
	<g>
		<g>
			<g>
				<path fill="#A02F5D" d="M78.5,6H77v-9c0-1.1-0.6-2.1-1.6-2.6C75-5.9,74.5-6,74-6c-0.6,0-1.1,0.2-1.6,0.5l-15.8,10H36.5
					c-1.7,0-3,1.3-3,3v15c0,1.7,1.3,3,3,3h3.3l4.3,14.4c0.4,1.3,1.5,2.1,2.9,2.1h7.5c0.9,0,1.8-0.4,2.4-1.2c0.6-0.8,0.7-1.7,0.5-2.7
					l-3.8-12.6h3l15.8,10c0.5,0.3,1,0.5,1.6,0.5c0.5,0,1-0.1,1.4-0.4c1-0.5,1.6-1.5,1.6-2.6v-9h1.5c1.7,0,3-1.3,3-3V9
					C81.5,7.3,80.2,6,78.5,6 M36.5,7.5H56v15H36.5V7.5z M54.5,39H47l-4.5-15H50L54.5,39z M74,33L57.5,22.5v-15L74-3V33z M78.5,21h-3
					V9h3V21z"/>
			</g>
		</g>
	</g>
</g>
</svg>
