<?xml version="1.0" encoding="utf-8"?>
<!-- Generator: Adobe Illustrator 17.1.0, SVG Export Plug-In . SVG Version: 6.00 Build 0)  -->
<!DOCTYPE svg PUBLIC "-//W3C//DTD SVG 1.1//EN" "http://www.w3.org/Graphics/SVG/1.1/DTD/svg11.dtd">
<svg version="1.1" id="Layer_1" xmlns="http://www.w3.org/2000/svg" xmlns:xlink="http://www.w3.org/1999/xlink" x="0px" y="0px"
	 viewBox="0 0 48 48" enable-background="new 0 0 48 48" xml:space="preserve">
<g>
	<g>
		<path fill="#A02F5D" d="M36,19c-0.553,0-1,0.447-1,1v5.333C35,30.663,30.514,35,25,35s-10-4.337-10-9.667V20c0-0.553-0.447-1-1-1
			s-1,0.447-1,1v5.333c0,6.105,4.85,11.121,11,11.618V40h2v-3.049c6.15-0.497,11-5.512,11-11.618V20C37,19.447,36.553,19,36,19z"/>
	</g>
	<g>
		<path fill="#A02F5D" d="M25,32c3.859,0,7-3.141,7-7V15c0-3.859-3.141-7-7-7s-7,3.141-7,7v10C18,28.859,21.141,32,25,32z M25,10
			c2.757,0,5,2.243,5,5v4H20v-4C20,12.243,22.243,10,25,10z M20,20h10v5c0,2.757-2.243,5-5,5s-5-2.243-5-5V20z"/>
	</g>
</g>
</svg>
