<?xml version="1.0" encoding="utf-8"?>
<!-- Generator: Adobe Illustrator 17.1.0, SVG Export Plug-In . SVG Version: 6.00 Build 0)  -->
<!DOCTYPE svg PUBLIC "-//W3C//DTD SVG 1.1//EN" "http://www.w3.org/Graphics/SVG/1.1/DTD/svg11.dtd">
<svg version="1.1" id="Layer_1" xmlns="http://www.w3.org/2000/svg" xmlns:xlink="http://www.w3.org/1999/xlink" x="0px" y="0px"
	 viewBox="0 0 1400 1400" enable-background="new 0 0 1400 1400" xml:space="preserve">
<path fill="#CC6F00" d="M1055.6,96.9L1055.6,96.9C1055.6,97,1055.6,97,1055.6,96.9L1055.6,96.9z M1080,112.1v543.4h64.9
	c49.5,0,89.3,39.8,89.3,89.3v23.1c0,32.8-18,61.7-44.4,77.1c26.4,15.4,44.4,44.3,44.4,77.1v36c0,49.5-39.9,89.4-89.3,89.4h-77.1
	c-8.4,0-12.2-3.8-12.2-12.2V97C951.4,35.4,829.8,0,700,0C313.4,0,0,313.4,0,700c0,386.6,313.4,700,700,700
	c386.6,0,700-313.4,700-700C1400,453.5,1272.6,236.8,1080,112.1z M573.7,963.9c-1.9,25.6-15,49.3-35.6,64.9
	c-20.6,15.6-46.8,21.9-71.8,16.2c-25.6-5-47.5-20.6-60.6-43.1c-3.1-5.6-1.9-13.1,5-16.3c5.6-3.1,11.9-1.2,16.2,4.4
	c10,16.8,24.4,27.5,43.7,31.9c19.4,4.4,38.1-0.6,53.1-12.5c15-11.9,24.4-28.1,26.2-47.5c1.2-19.4-5-36.8-18.7-51.2l-99.3-102.4
	c-17.5-18.1-26.2-42.5-24.4-67.4c1.9-24.4,14.4-47.5,33.7-62.5c20-15,45.6-20.6,69.9-15.6c24.4,5,45.6,19.4,58.1,41.2
	c3.1,6.9,1.9,12.5-4.4,16.9c-5.6,3.1-13.1,1.2-16.2-4.4c-9.4-15.6-24.4-26.2-42.5-30.6c-17.5-3.1-35.6,0-50,11.9
	c-14.4,10.6-23.1,27.5-25,45c-1.9,18.1,5,36.2,17.5,48.7l99.9,103C566.8,912.7,575.6,938.3,573.7,963.9z M984.3,676.1L904,1038.3
	c-1.7,5.6-5.2,8.8-10.3,8.8c-6.3,0-9.7-3.1-10.9-8.8c-9.8-45.6-19.5-89.3-28.7-129.9c-15.5-70-33.3-148-40.7-184.2
	c-7.5,36.2-25.8,114.3-41.3,184.2c-9.2,40.6-18.9,84.3-28.7,129.9c-1.7,5.6-5.1,8.8-10.3,8.8c-6.3,0-9.7-3.1-10.9-8.8l-80.3-362.2
	c-1.2-8.1,1.7-13.1,8-15c6.3-1.9,11.5,2.5,13.2,9.4c9.8,45.6,19.5,89.3,28.7,129.9c15.5,69.9,33.8,146.8,41.3,183.6
	c7.5-36.8,25.2-113.6,40.7-183.6c9.2-40.6,18.9-84.3,28.7-129.9c1.1-6.3,4.6-9.4,10.9-9.4c5.8,0,9.2,3.1,10.3,9.4
	c9.7,45.6,19.5,89.3,28.7,129.9c15.5,69.9,33.8,146.8,41.3,183.6c7.5-36.8,25.2-113.6,40.7-183.6c9.2-40.6,18.9-84.3,28.7-129.9
	c1.7-6.9,6.9-11.2,13.2-9.4C983.7,663,986,668,984.3,676.1z M1080,112C1080,112,1080,112,1080,112L1080,112L1080,112z M1209.9,767.9
	v-23.1c0-36-29.6-64.9-64.9-64.9H1080v153h64.9C1180.3,832.8,1209.9,803.9,1209.9,767.9z M1080,1023h64.9
	c35.3,0,64.9-28.9,64.9-64.9v-36c0-36-29.6-64.9-64.9-64.9H1080V1023z"/>
</svg>
