<?xml version="1.0" encoding="utf-8"?>
<!-- Generator: Adobe Illustrator 17.1.0, SVG Export Plug-In . SVG Version: 6.00 Build 0)  -->
<!DOCTYPE svg PUBLIC "-//W3C//DTD SVG 1.1//EN" "http://www.w3.org/Graphics/SVG/1.1/DTD/svg11.dtd">
<svg version="1.1" id="Layer_1" xmlns="http://www.w3.org/2000/svg" xmlns:xlink="http://www.w3.org/1999/xlink" x="0px" y="0px"
	 viewBox="-9.491 -8.353 120 120" enable-background="new -9.491 -8.353 120 120" xml:space="preserve">
<path fill="#769246" d="M80.989-0.045v0.003c0.001,0,0.001,0.001,0.002,0.001L80.989-0.045z M83.082,1.252v46.574h5.564
	c4.242,0,7.658,3.414,7.658,7.656v1.983c0,2.81-1.543,5.288-3.802,6.611c2.259,1.321,3.802,3.801,3.802,6.61v3.084
	c0,4.243-3.416,7.659-7.658,7.659h-6.611c-0.716,0-1.046-0.33-1.046-1.047V-0.042C72.057-5.32,61.639-8.353,50.51-8.353
	c-33.138,0-60.001,26.863-60.001,60c0,33.14,26.863,60,60.001,60c33.139,0,59.999-26.86,59.999-60
	C110.509,30.518,99.588,11.942,83.082,1.252z M39.682,74.27c-0.16,2.195-1.286,4.229-3.052,5.567
	c-1.766,1.338-4.015,1.874-6.155,1.391c-2.196-0.429-4.069-1.766-5.193-3.692c-0.267-0.483-0.161-1.125,0.429-1.393
	c0.482-0.267,1.017-0.106,1.391,0.375c0.857,1.444,2.089,2.355,3.748,2.73s3.265-0.054,4.55-1.071
	c1.286-1.018,2.089-2.409,2.249-4.068c0.106-1.66-0.429-3.158-1.606-4.39L27.53,60.94c-1.498-1.552-2.248-3.64-2.088-5.781
	c0.161-2.088,1.231-4.069,2.89-5.353c1.713-1.286,3.908-1.767,5.995-1.338c2.089,0.429,3.908,1.659,4.979,3.532
	c0.267,0.589,0.161,1.072-0.374,1.446c-0.482,0.268-1.124,0.107-1.392-0.374c-0.803-1.339-2.088-2.249-3.639-2.623
	c-1.499-0.268-3.052,0-4.284,1.017c-1.231,0.91-1.98,2.356-2.142,3.855c-0.16,1.552,0.428,3.104,1.499,4.175l8.565,8.832
	C39.093,69.88,39.842,72.075,39.682,74.27z M74.876,49.599l-6.882,31.043c-0.147,0.481-0.442,0.75-0.885,0.75
	c-0.541,0-0.835-0.269-0.934-0.75c-0.836-3.908-1.67-7.655-2.458-11.133c-1.327-5.996-2.851-12.686-3.49-15.789
	c-0.639,3.103-2.21,9.793-3.539,15.789c-0.786,3.478-1.622,7.224-2.458,11.133c-0.147,0.481-0.44,0.75-0.884,0.75
	c-0.541,0-0.835-0.269-0.934-0.75l-6.881-31.043c-0.099-0.696,0.146-1.124,0.688-1.284c0.54-0.162,0.983,0.213,1.129,0.802
	c0.837,3.906,1.673,7.654,2.459,11.132c1.327,5.995,2.9,12.579,3.539,15.736c0.639-3.158,2.162-9.741,3.491-15.736
	c0.786-3.478,1.621-7.226,2.457-11.132c0.098-0.536,0.393-0.802,0.933-0.802c0.493,0,0.787,0.266,0.886,0.802
	c0.834,3.906,1.67,7.654,2.457,11.132c1.327,5.995,2.899,12.579,3.538,15.736c0.639-3.158,2.162-9.741,3.491-15.736
	c0.786-3.478,1.621-7.226,2.457-11.132c0.148-0.589,0.589-0.964,1.132-0.802C74.827,48.475,75.024,48.904,74.876,49.599z
	 M83.078,1.249c0.002,0.001,0.003,0.002,0.005,0.003V1.246L83.078,1.249z M94.211,57.466v-1.983c0-3.085-2.534-5.564-5.564-5.564
	h-5.564V63.03h5.564C91.677,63.03,94.211,60.552,94.211,57.466z M83.082,79.336h5.564c3.03,0,5.564-2.478,5.564-5.564v-3.084
	c0-3.084-2.534-5.564-5.564-5.564h-5.564V79.336z"/>
</svg>
