<?xml version="1.0" encoding="utf-8"?>
<!-- Generator: Adobe Illustrator 17.1.0, SVG Export Plug-In . SVG Version: 6.00 Build 0)  -->
<!DOCTYPE svg PUBLIC "-//W3C//DTD SVG 1.1//EN" "http://www.w3.org/Graphics/SVG/1.1/DTD/svg11.dtd">
<svg version="1.1" id="Layer_1" xmlns="http://www.w3.org/2000/svg" xmlns:xlink="http://www.w3.org/1999/xlink" x="0px" y="0px"
	 viewBox="0 0 48 48" enable-background="new 0 0 48 48" xml:space="preserve">
<g id="Layer_1_1_">
	<path fill="#FFFFFF" d="M36.192,3.321L36.192,3.321C36.192,3.325,36.192,3.325,36.192,3.321L36.192,3.321z M37.029,3.842v18.629
		h2.225c1.696,0,3.062,1.363,3.062,3.062v0.792c0,1.125-0.617,2.117-1.521,2.642c0.904,0.529,1.521,1.521,1.521,2.642v1.233
		c0,1.696-1.367,3.067-3.062,3.067h-2.642c-0.288,0-0.417-0.129-0.417-0.417V3.325C32.621,1.212,28.45,0,24,0
		C10.746,0,0,10.746,0,24s10.746,24,24,24s24-10.746,24-24C48,15.55,43.633,8.121,37.029,3.842z M19.671,33.05
		c-0.067,0.879-0.512,1.692-1.221,2.225c-0.708,0.533-1.604,0.75-2.462,0.554c-0.879-0.171-1.629-0.708-2.079-1.479
		c-0.108-0.192-0.067-0.45,0.171-0.558c0.192-0.108,0.408-0.042,0.554,0.15c0.342,0.575,0.837,0.942,1.5,1.092
		c0.667,0.15,1.308-0.021,1.821-0.429c0.513-0.408,0.837-0.963,0.9-1.629c0.042-0.667-0.171-1.263-0.642-1.754l-3.404-3.512
		c-0.6-0.621-0.9-1.458-0.837-2.312c0.067-0.837,0.492-1.629,1.154-2.142c0.688-0.512,1.563-0.708,2.396-0.533
		c0.837,0.171,1.562,0.667,1.992,1.413c0.108,0.237,0.067,0.429-0.15,0.579c-0.192,0.108-0.45,0.042-0.554-0.15
		c-0.321-0.533-0.837-0.9-1.458-1.05c-0.6-0.108-1.221,0-1.712,0.408c-0.492,0.363-0.792,0.942-0.858,1.542
		c-0.067,0.621,0.171,1.242,0.6,1.671l3.425,3.533C19.433,31.292,19.733,32.171,19.671,33.05z M33.746,23.179l-2.754,12.417
		c-0.058,0.192-0.179,0.3-0.354,0.3c-0.217,0-0.333-0.108-0.375-0.3c-0.337-1.562-0.667-3.062-0.983-4.454
		c-0.533-2.4-1.142-5.075-1.396-6.317c-0.258,1.242-0.883,3.921-1.417,6.317c-0.317,1.392-0.65,2.892-0.983,4.454
		c-0.058,0.192-0.175,0.3-0.354,0.3c-0.217,0-0.333-0.108-0.375-0.3L22,23.179c-0.042-0.279,0.058-0.45,0.275-0.512
		c0.217-0.067,0.396,0.087,0.454,0.321c0.337,1.562,0.667,3.062,0.983,4.454c0.533,2.396,1.158,5.033,1.417,6.296
		c0.258-1.263,0.862-3.896,1.396-6.296c0.317-1.392,0.65-2.892,0.983-4.454c0.038-0.217,0.158-0.321,0.375-0.321
		c0.2,0,0.317,0.108,0.354,0.321c0.333,1.562,0.667,3.062,0.983,4.454c0.533,2.396,1.158,5.033,1.417,6.296
		c0.258-1.263,0.862-3.896,1.396-6.296c0.317-1.392,0.65-2.892,0.983-4.454c0.058-0.237,0.237-0.383,0.454-0.321
		C33.725,22.733,33.804,22.904,33.746,23.179z M37.029,3.842L37.029,3.842L37.029,3.842L37.029,3.842z M41.483,26.329v-0.792
		c0-1.233-1.017-2.225-2.225-2.225h-2.229v5.246h2.225C40.467,28.554,41.483,27.562,41.483,26.329z M37.029,35.075h2.225
		c1.208,0,2.225-0.992,2.225-2.225v-1.233c0-1.233-1.017-2.225-2.225-2.225h-2.225V35.075z"/>
</g>
<g id="Layer_2" display="none">
	<g display="inline">
		<path fill="#FFFFFF" d="M24,0.275C10.896,0.275,0.275,10.896,0.275,24S10.896,47.725,24,47.725S47.725,37.104,47.725,24
			S37.104,0.275,24,0.275z M9.175,30.771c-1.883,0-3.696-0.629-4.837-1.679L5.571,27.1c0.783,0.738,2.396,1.479,3.742,1.479
			c1.233,0,1.812-0.492,1.812-1.167c0-1.792-6.429-0.337-6.429-4.592c0-1.812,1.592-3.404,4.433-3.404
			c1.837,0,3.292,0.629,4.367,1.479l-1.142,1.95c-0.65-0.696-1.883-1.254-3.204-1.254c-1.029,0-1.704,0.471-1.704,1.075
			c0,1.613,6.408,0.271,6.408,4.637C13.854,29.271,12.175,30.771,9.175,30.771z M28.483,30.504h-3.025l-2.283-7.371l-2.283,7.371
			h-3.046l-3.292-10.821h2.958l2.017,7.279l2.375-7.279h2.533l2.375,7.279l2.017-7.279h2.958L28.483,30.504z M39.371,30.771
			c-1.3,0-2.487-0.583-3.337-1.658V30.5h-2.846V15.562h2.846v5.512c0.85-1.096,2.062-1.658,3.337-1.658
			c2.754,0,4.796,2.15,4.796,5.692C44.163,28.712,42.104,30.771,39.371,30.771z"/>
		<path fill="#FFFFFF" d="M38.475,21.946c-0.917,0-1.971,0.538-2.442,1.254v3.829c0.471,0.696,1.525,1.208,2.442,1.208
			c1.658,0,2.754-1.254,2.754-3.137C41.229,23.221,40.133,21.946,38.475,21.946z"/>
	</g>
</g>
</svg>
