<?xml version="1.0" encoding="utf-8"?>
<!-- Generator: Adobe Illustrator 17.1.0, SVG Export Plug-In . SVG Version: 6.00 Build 0)  -->
<!DOCTYPE svg PUBLIC "-//W3C//DTD SVG 1.1//EN" "http://www.w3.org/Graphics/SVG/1.1/DTD/svg11.dtd">
<svg version="1.1" xmlns="http://www.w3.org/2000/svg" xmlns:xlink="http://www.w3.org/1999/xlink" x="0px" y="0px"
	 viewBox="448 0 1152 1152" enable-background="new 448 0 1152 1152" xml:space="preserve">
<g id="Layer_1" display="none">
	<path display="inline" fill="#FFFFFF" d="M1316.6,79.7L1316.6,79.7C1316.6,79.8,1316.6,79.8,1316.6,79.7L1316.6,79.7z M1336.7,92.2
		v447.1h53.4c40.7,0,73.5,32.7,73.5,73.5v19c0,27-14.8,50.8-36.5,63.4c21.7,12.7,36.5,36.5,36.5,63.4v29.6
		c0,40.7-32.8,73.6-73.5,73.6h-63.4c-6.9,0-10-3.1-10-10V79.8C1230.9,29.1,1130.8,0,1024,0C705.9,0,448,257.9,448,576
		s257.9,576,576,576s576-257.9,576-576C1600,373.2,1495.2,194.9,1336.7,92.2z M920.1,793.2c-1.6,21.1-12.3,40.6-29.3,53.4
		c-17,12.8-38.5,18-59.1,13.3c-21.1-4.1-39.1-17-49.9-35.5c-2.6-4.6-1.6-10.8,4.1-13.4c4.6-2.6,9.8-1,13.3,3.6
		c8.2,13.8,20.1,22.6,36,26.2c16,3.6,31.4-0.5,43.7-10.3c12.3-9.8,20.1-23.1,21.6-39.1c1-16-4.1-30.3-15.4-42.1l-81.7-84.3
		c-14.4-14.9-21.6-35-20.1-55.5c1.6-20.1,11.8-39.1,27.7-51.4c16.5-12.3,37.5-17,57.5-12.8c20.1,4.1,37.5,16,47.8,33.9
		c2.6,5.7,1.6,10.3-3.6,13.9c-4.6,2.6-10.8,1-13.3-3.6c-7.7-12.8-20.1-21.6-35-25.2c-14.4-2.6-29.3,0-41.1,9.8
		c-11.8,8.7-19,22.6-20.6,37c-1.6,14.9,4.1,29.8,14.4,40.1l82.2,84.8C914.4,751,921.6,772.1,920.1,793.2z M1257.9,556.3l-66.1,298
		c-1.4,4.6-4.3,7.2-8.5,7.2c-5.2,0-8-2.6-9-7.2c-8.1-37.5-16-73.5-23.6-106.9c-12.8-57.6-27.4-121.8-33.5-151.6
		c-6.2,29.8-21.2,94.1-34,151.6c-7.6,33.4-15.6,69.4-23.6,106.9c-1.4,4.6-4.2,7.2-8.5,7.2c-5.2,0-8-2.6-9-7.2l-66.1-298
		c-1-6.7,1.4-10.8,6.6-12.3c5.2-1.6,9.5,2.1,10.9,7.7c8.1,37.5,16,73.5,23.6,106.9c12.8,57.5,27.8,120.8,34,151.1
		c6.2-30.3,20.7-93.5,33.5-151.1c7.6-33.4,15.6-69.4,23.6-106.9c0.9-5.2,3.8-7.7,9-7.7c4.8,0,7.6,2.6,8.5,7.7
		c8,37.5,16,73.5,23.6,106.9c12.8,57.5,27.8,120.8,34,151.1c6.2-30.3,20.7-93.5,33.5-151.1c7.6-33.4,15.6-69.4,23.6-106.9
		c1.4-5.7,5.7-9.2,10.9-7.7C1257.4,545.6,1259.3,549.7,1257.9,556.3z M1336.7,92.2L1336.7,92.2L1336.7,92.2L1336.7,92.2z
		 M1443.6,631.9v-19c0-29.6-24.4-53.4-53.4-53.4h-53.5v125.9h53.4C1419.2,685.3,1443.6,661.5,1443.6,631.9z M1336.7,841.8h53.4
		c29,0,53.4-23.8,53.4-53.4v-29.6c0-29.6-24.4-53.4-53.4-53.4h-53.4V841.8z"/>
</g>
<g id="Layer_2">
	<g>
		<path fill="#FFFFFF" d="M1024,6.6C709.5,6.6,454.6,261.5,454.6,576s254.9,569.4,569.4,569.4s569.4-254.9,569.4-569.4
			S1338.5,6.6,1024,6.6z M668.2,738.5c-45.2,0-88.7-15.1-116.1-40.3l29.6-47.8c18.8,17.7,57.5,35.5,89.8,35.5
			c29.6,0,43.5-11.8,43.5-28c0-43-154.3-8.1-154.3-110.2c0-43.5,38.2-81.7,106.4-81.7c44.1,0,79,15.1,104.8,35.5l-27.4,46.8
			c-15.6-16.7-45.2-30.1-76.9-30.1c-24.7,0-40.9,11.3-40.9,25.8c0,38.7,153.8,6.5,153.8,111.3C780.5,702.5,740.2,738.5,668.2,738.5z
			 M1131.6,732.1H1059l-54.8-176.9l-54.8,176.9h-73.1l-79-259.7h71l48.4,174.7l57-174.7h60.8l57,174.7l48.4-174.7h71L1131.6,732.1z
			 M1392.9,738.5c-31.2,0-59.7-14-80.1-39.8v33.3h-68.3V373.5h68.3v132.3c20.4-26.3,49.5-39.8,80.1-39.8
			c66.1,0,115.1,51.6,115.1,136.6C1507.9,689.1,1458.5,738.5,1392.9,738.5z"/>
		<path fill="#FFFFFF" d="M1371.4,526.7c-22,0-47.3,12.9-58.6,30.1v91.9c11.3,16.7,36.6,29,58.6,29c39.8,0,66.1-30.1,66.1-75.3
			C1437.5,557.3,1411.2,526.7,1371.4,526.7z"/>
	</g>
</g>
</svg>
